<svg xmlns="http://www.w3.org/2000/svg" viewBox="0 0 64 64" fill="none">
  <circle cx="32" cy="32" r="30" fill="#7c3aed" opacity="0.15"/>
  <path d="M32 12C22 12 16 20 16 28c0 5 2 9 6 12v8a2 2 0 002 2h16a2 2 0 002-2v-8c4-3 6-7 6-12 0-8-6-16-16-16z" stroke="#8b5cf6" stroke-width="2.5" fill="none" stroke-linecap="round" stroke-linejoin="round"/>
  <path d="M24 52h16M26 56h12" stroke="#8b5cf6" stroke-width="2.5" stroke-linecap="round"/>
  <path d="M32 20v12M26 26l6 6 6-6" stroke="#a78bfa" stroke-width="2" stroke-linecap="round" stroke-linejoin="round"/>
  <circle cx="24" cy="28" r="2" fill="#a78bfa"/>
  <circle cx="40" cy="28" r="2" fill="#a78bfa"/>
</svg>
